<?xml version="1.0" standalone="no"?>
<!DOCTYPE svg PUBLIC "-//W3C//DTD SVG 20010904//EN"
 "http://www.w3.org/TR/2001/REC-SVG-20010904/DTD/svg10.dtd">
<svg version="1.0" xmlns="http://www.w3.org/2000/svg"
 width="800.000000pt" height="800.000000pt" viewBox="0 0 800.000000 800.000000"
 preserveAspectRatio="xMidYMid meet">

<g transform="translate(0.000000,800.000000) scale(0.100000,-0.100000)"
fill="#000000" stroke="none">
<path d="M5185 6578 c-170 -105 -427 -198 -547 -198 -24 0 -81 16 -142 41
-179 72 -269 90 -461 96 -138 5 -188 2 -265 -13 -118 -22 -163 -22 -220 0 -35
14 -67 17 -145 14 -109 -4 -136 -14 -239 -93 -38 -29 -55 -35 -94 -35 -141 0
-286 -62 -459 -196 -216 -168 -343 -240 -455 -256 -85 -13 -101 -27 -95 -82
21 -172 31 -225 53 -282 14 -37 23 -67 22 -69 -2 -1 -43 -21 -93 -46 -111 -54
-226 -158 -274 -249 -24 -45 -41 -64 -69 -77 -64 -29 -98 -62 -131 -122 -25
-47 -31 -71 -31 -117 0 -62 16 -120 40 -149 10 -12 17 -52 21 -114 8 -114 22
-176 55 -235 35 -63 172 -190 236 -219 42 -19 61 -37 93 -83 84 -124 290 -314
340 -314 26 0 28 23 10 156 -10 69 -18 176 -19 238 l-1 111 25 -2 c14 0 64
-19 110 -42 75 -35 89 -46 119 -93 19 -29 58 -82 86 -118 47 -59 80 -91 217
-211 l41 -36 -18 -71 c-9 -40 -21 -75 -26 -78 -16 -10 -47 15 -79 66 -21 32
-39 50 -49 48 -45 -9 -72 -185 -54 -349 10 -92 10 -102 -7 -119 -15 -15 -16
-25 -8 -75 18 -117 56 -203 138 -312 l31 -42 -28 -6 c-15 -4 -35 -9 -43 -12
-8 -2 -58 -11 -110 -19 -52 -7 -135 -23 -185 -33 -108 -24 -247 -48 -370 -66
-124 -18 -209 -33 -280 -51 -33 -9 -94 -19 -135 -24 -209 -23 -279 -48 -329
-119 -20 -28 -21 -40 -21 -450 0 -395 1 -424 19 -459 22 -42 50 -70 101 -101
29 -17 51 -21 125 -21 50 0 117 7 150 15 33 8 74 14 90 15 17 0 82 14 145 31
63 16 144 32 180 34 89 6 196 24 236 41 18 8 52 14 76 14 41 0 69 4 258 40 52
10 131 23 175 30 103 15 177 31 190 40 6 4 45 10 88 12 l77 5 0 -194 c0 -217
6 -244 65 -289 27 -20 43 -24 107 -24 42 0 120 8 174 19 55 10 133 24 174 30
41 7 100 19 130 28 30 8 91 19 135 23 99 10 234 36 249 49 6 5 52 11 102 13
106 5 184 36 224 90 22 29 25 45 28 138 l4 105 38 40 c52 54 62 85 59 184 -3
77 -1 85 18 98 20 13 28 13 73 -2 56 -18 28 -21 310 31 47 9 105 22 130 29 25
8 86 18 135 24 182 21 311 49 358 78 7 4 46 8 87 8 85 2 191 17 235 35 17 7
53 12 81 11 28 -1 70 5 93 14 24 8 61 15 81 15 106 0 206 53 236 127 11 26 14
121 14 463 0 476 0 476 -62 524 -64 48 -87 51 -216 26 -64 -12 -130 -26 -147
-32 -16 -5 -77 -16 -135 -24 -117 -16 -154 -22 -320 -54 -63 -12 -136 -25
-162 -30 -26 -5 -56 -13 -67 -19 -22 -12 -61 -15 -61 -4 0 3 16 35 36 71 20
36 91 174 158 306 115 228 229 423 311 532 56 75 223 242 289 288 77 54 200
126 256 150 85 37 86 42 29 140 -53 90 -128 184 -227 284 -120 122 -118 115
-42 111 78 -5 80 1 25 73 -57 75 -328 350 -405 411 -36 28 -67 54 -70 58 -17
20 -265 173 -365 224 l-60 31 4 159 c2 98 -2 185 -9 225 -16 87 -58 215 -78
240 -17 21 -17 21 -87 -22z m-7 -268 c12 -50 5 -193 -9 -184 -5 3 -9 0 -9 -5
0 -6 -5 -11 -11 -11 -6 0 -9 13 -7 29 1 19 -7 42 -26 70 l-28 41 -27 -19 c-41
-29 -148 -67 -241 -86 -235 -47 -329 -79 -403 -137 -21 -17 -36 -32 -34 -34 2
-2 60 1 128 6 68 6 158 8 199 4 l74 -7 -44 -21 c-57 -28 -142 -78 -138 -81 2
-2 38 -12 81 -24 281 -77 534 -289 662 -556 67 -142 67 -148 0 -87 -32 30 -85
72 -118 94 -60 41 -215 118 -237 118 -7 0 0 -21 18 -52 71 -127 126 -308 141
-466 14 -137 2 -281 -35 -422 -29 -108 -100 -279 -120 -287 -7 -3 -48 7 -91
21 -102 34 -258 65 -358 73 l-80 5 105 -72 c103 -71 163 -120 156 -127 -2 -2
-27 6 -56 17 -98 39 -302 79 -434 85 -56 3 -118 8 -138 11 l-38 6 103 -104
c111 -111 233 -266 220 -278 -4 -4 -26 -13 -48 -20 -70 -22 -235 -111 -314
-170 -216 -161 -390 -415 -416 -606 l-6 -50 -87 -18 c-48 -10 -116 -22 -152
-26 -36 -5 -78 -12 -95 -16 -25 -6 -19 1 33 40 40 29 77 69 102 108 45 69 50
88 18 64 -177 -126 -351 -172 -454 -118 -35 18 -84 74 -84 95 0 3 46 5 103 4
164 -2 293 50 404 165 109 111 163 242 188 455 17 147 35 183 102 209 57 22
128 6 204 -46 l58 -39 -29 67 c-84 197 -214 386 -377 550 l-83 83 0 60 0 60
48 -28 c86 -49 221 -143 302 -209 44 -35 80 -62 80 -60 0 11 -65 112 -109 171
-67 90 -216 239 -305 306 -65 48 -87 72 -117 127 -65 117 -169 225 -264 275
-30 16 -59 21 -112 22 -65 0 -74 -3 -110 -31 -42 -34 -103 -127 -103 -158 0
-19 0 -19 23 1 67 62 166 80 243 43 137 -67 270 -320 235 -449 -26 -94 -90
-120 -248 -101 -162 20 -215 9 -419 -92 -141 -69 -207 -82 -268 -53 -22 11
-44 31 -53 49 -14 30 -13 36 35 148 72 171 176 337 305 487 26 30 45 56 43 58
-1 2 -29 -8 -61 -23 -33 -14 -93 -37 -134 -50 -42 -13 -89 -31 -106 -38 -41
-20 -128 -41 -267 -66 -170 -30 -226 -12 -215 70 15 117 215 271 462 355 108
37 246 47 276 19 22 -19 22 -20 2 -124 l-6 -34 54 48 c86 77 144 100 264 100
63 1 108 -4 123 -12 18 -10 22 -10 22 1 0 8 -3 17 -7 20 -3 4 -14 24 -23 44
l-17 38 146 2 c220 3 301 28 424 133 57 48 61 50 120 50 34 0 78 -4 97 -10
l35 -9 -35 30 c-19 17 -48 43 -65 59 -16 16 -65 45 -107 65 -44 21 -75 42 -72
48 2 7 27 28 56 47 l51 35 -79 7 c-173 15 -260 -20 -612 -249 -102 -67 -217
-128 -256 -137 -19 -5 -36 -1 -53 10 -23 15 -25 21 -20 68 3 28 13 68 23 89
10 20 15 39 12 43 -8 8 -124 -44 -139 -62 -7 -9 -32 -14 -68 -14 l-56 0 -12
-62 c-13 -66 -39 -111 -67 -116 -22 -5 -63 32 -85 78 -21 42 -44 128 -36 139
2 5 22 11 43 15 64 10 177 73 290 163 126 99 275 201 308 209 56 14 86 -16 66
-68 -6 -17 -10 -34 -7 -36 12 -12 140 66 245 148 125 98 184 125 255 118 70
-8 151 -52 217 -119 l62 -61 62 65 c76 78 121 97 249 104 109 5 143 -9 193
-83 32 -46 33 -52 30 -126 -2 -43 -2 -78 -2 -78 1 0 28 18 60 39 88 59 246
118 420 157 207 47 313 78 382 113 31 16 60 26 63 23 4 -4 11 -27 17 -52z
m-1859 -539 c11 -7 3 -20 -35 -61 -70 -76 -107 -90 -233 -90 l-104 0 79 55
c127 88 162 104 224 104 30 1 61 -3 69 -8z m2226 -124 c83 -55 156 -107 239
-171 l79 -61 -74 -6 c-88 -7 -137 -17 -144 -29 -3 -5 25 -29 62 -53 207 -135
413 -328 571 -534 l32 -41 -74 -41 c-41 -23 -77 -41 -80 -41 -2 0 -14 18 -25
41 -60 115 -210 317 -320 432 -65 68 -214 198 -283 247 -27 18 -48 36 -48 40
0 11 42 27 103 40 31 6 57 14 57 17 0 9 -69 93 -119 146 -53 55 -45 60 24 14z
m45 -1070 c41 -106 77 -246 85 -334 7 -71 6 -74 -27 -125 -19 -29 -63 -102
-98 -161 -34 -59 -64 -106 -67 -103 -3 2 2 37 11 78 40 188 49 454 22 673 -9
72 -19 139 -22 150 -10 41 67 -103 96 -178z m-3753 33 c67 -40 191 -92 251
-105 17 -3 32 -11 32 -15 0 -5 -9 -34 -21 -65 -27 -73 -66 -95 -130 -76 -56
17 -134 98 -170 176 -26 58 -44 125 -33 125 3 0 35 -18 71 -40z m927 -205 c21
-14 23 -22 24 -118 1 -56 5 -117 11 -134 5 -18 7 -33 3 -33 -13 1 -97 111
-133 174 -29 49 -34 67 -26 82 23 45 77 58 121 29z m-611 -166 c31 -17 37 -28
37 -79 0 -25 5 -65 11 -89 5 -24 8 -45 6 -48 -7 -6 -100 95 -124 135 -27 44
-28 55 -7 76 18 19 47 20 77 5z m1102 -715 c16 -17 47 -43 67 -58 33 -25 36
-30 27 -54 -23 -61 -70 -80 -103 -43 -22 24 -52 118 -60 191 l-7 55 23 -30
c12 -16 36 -44 53 -61z m1724 -54 c28 -23 65 -60 82 -83 29 -40 69 -110 69
-121 0 -15 -74 -33 -151 -39 l-86 -6 8 43 c4 23 9 88 11 144 2 56 6 102 10
102 3 0 29 -18 57 -40z m-2129 -27 c19 -27 58 -74 88 -105 l54 -56 -21 -21
c-49 -49 -127 -11 -150 74 -10 36 -16 155 -8 155 2 0 19 -21 37 -47z m3578
-535 l-3 -413 -90 -16 c-49 -9 -106 -19 -126 -23 -42 -9 -33 -28 -111 214
l-53 165 -5 -205 -5 -205 -88 -14 c-48 -7 -89 -12 -91 -10 -2 2 -7 182 -11
399 -6 327 -5 398 6 406 20 15 209 48 218 38 5 -5 30 -63 56 -129 26 -66 51
-124 56 -129 5 -6 9 52 9 137 0 110 3 149 13 151 10 3 198 41 220 45 4 0 6
-185 5 -411z m-633 265 c-3 -16 -14 -86 -25 -158 -11 -71 -27 -166 -35 -210
-8 -44 -19 -116 -24 -160 -14 -110 -40 -278 -44 -282 -10 -9 -310 -54 -316
-46 -4 4 -21 89 -36 188 -16 99 -32 184 -36 189 -10 11 -24 -72 -65 -366 l-6
-46 -97 -18 c-53 -9 -125 -22 -161 -29 -36 -7 -66 -12 -67 -11 -7 7 -136 786
-131 791 8 8 160 36 209 38 l53 2 32 -215 c18 -118 33 -217 33 -219 4 -21 15
29 31 150 11 79 25 183 31 231 l13 87 48 10 c82 18 188 33 200 29 8 -3 17 -40
24 -89 26 -203 49 -349 54 -349 3 0 20 104 38 232 17 127 34 234 37 237 6 6
185 38 222 40 19 1 22 -3 18 -26z m-1765 -23 c20 -11 45 -74 35 -90 -3 -5 -27
-10 -52 -10 -25 0 -81 -7 -124 -16 -104 -21 -113 -19 -92 24 35 72 170 126
233 92z m650 -187 c20 -26 21 -34 18 -376 l-3 -349 -31 -28 c-33 -29 -69 -39
-299 -79 -66 -12 -143 -21 -172 -21 -85 0 -83 -11 -83 386 0 440 -17 408 240
454 69 13 143 26 165 30 22 4 63 8 92 9 45 1 54 -2 73 -26z m-630 -477 c0
-377 -1 -405 -17 -410 -37 -10 -246 -47 -247 -43 -1 1 -9 27 -19 57 -62 201
-90 288 -100 310 -10 20 -13 -13 -17 -185 l-5 -209 -60 -13 c-33 -7 -75 -12
-92 -13 l-33 0 0 404 c0 377 1 405 18 409 34 10 118 26 163 32 l46 6 33 -83
c35 -87 59 -146 78 -188 8 -20 11 8 11 133 1 116 4 159 14 162 20 8 170 33
200 34 l27 1 0 -404z m-660 289 c0 -3 -38 -95 -85 -204 -47 -109 -85 -208 -85
-219 0 -11 40 -103 90 -203 49 -100 89 -184 87 -186 -6 -6 -248 -44 -258 -41
-5 2 -25 41 -44 88 -19 46 -39 88 -45 94 -7 7 -10 -25 -10 -96 0 -123 14 -109
-135 -134 -55 -9 -103 -18 -107 -21 -5 -2 -8 182 -8 409 l0 414 103 17 c56 10
112 20 125 23 22 6 22 5 22 -97 1 -123 13 -109 71 78 11 37 14 38 136 58 53 9
99 18 102 20 6 7 41 6 41 0z m-660 -524 l0 -408 -37 -6 c-21 -3 -80 -13 -132
-22 -97 -16 -110 -13 -111 23 0 7 -15 59 -33 115 -19 56 -42 130 -53 164 -10
35 -22 63 -26 63 -5 0 -8 -91 -8 -203 l0 -203 -62 -12 c-35 -6 -76 -13 -93
-14 l-30 -3 -2 407 -3 407 57 11 c32 7 81 16 111 20 62 8 56 16 123 -151 22
-57 45 -108 50 -113 5 -6 9 52 9 141 l0 152 57 11 c69 15 142 27 166 29 16 1
17 -25 17 -408z m-650 -81 l0 -380 -32 -35 c-30 -31 -44 -37 -133 -54 -232
-45 -281 -53 -333 -54 -46 -1 -57 3 -73 22 -18 22 -19 46 -19 400 l0 376 103
18 c56 10 114 20 130 23 l27 6 0 -312 0 -312 23 6 c12 3 28 6 34 6 10 0 13 73
15 313 l3 312 50 9 c28 4 79 14 115 21 36 7 71 13 78 14 9 1 12 -81 12 -379z
m2500 -215 l0 -54 -37 -6 c-21 -4 -44 -8 -50 -10 -10 -3 -13 -41 -13 -145 0
-104 -3 -142 -12 -144 -7 -3 -32 -7 -55 -9 l-43 -5 0 140 0 141 -45 -6 -46 -5
3 57 3 56 50 8 c28 5 79 14 115 22 36 7 80 13 98 14 l32 1 0 -55z m-342 -17
c7 -7 12 -31 12 -54 l0 -43 -55 -12 c-43 -10 -57 -9 -70 1 -21 18 -47 5 -43
-22 3 -25 29 -29 100 -15 57 12 68 -6 68 -114 0 -116 -4 -120 -144 -144 -128
-22 -140 -18 -144 47 -3 44 -2 46 29 52 46 9 87 7 94 -4 12 -19 35 3 35 32 0
26 -3 29 -22 25 -13 -4 -42 -9 -65 -13 -65 -10 -73 1 -73 111 0 111 5 117 105
139 129 28 157 30 173 14z m-313 -238 l0 -184 -25 -12 c-33 -17 -216 -48 -235
-40 -13 4 -15 35 -15 184 0 206 -1 203 90 221 83 17 102 19 145 17 l40 -1 0
-185z m-395 -21 l0 -152 40 7 40 6 0 -44 c0 -44 -1 -46 -38 -56 -21 -5 -66
-14 -100 -18 l-62 -9 0 198 0 197 48 10 c26 5 53 10 60 11 9 1 12 -35 12 -150z"/>
<path d="M4100 5851 c0 -5 19 -16 43 -26 23 -9 85 -45 137 -80 98 -66 211
-162 175 -149 -11 4 -48 17 -83 31 -64 23 -250 59 -260 49 -3 -3 7 -23 21 -44
159 -241 210 -575 131 -859 -8 -29 -16 -53 -19 -53 -2 0 -36 18 -77 39 -85 46
-252 113 -326 131 -29 6 -52 15 -52 20 0 8 -218 45 -225 38 -3 -2 30 -19 73
-38 201 -86 443 -267 572 -428 36 -44 69 -80 74 -78 13 3 84 146 112 228 14
38 32 118 40 176 29 198 -3 390 -100 613 -6 14 5 17 81 23 103 7 238 -6 341
-34 40 -11 75 -20 77 -20 19 0 -98 157 -159 213 -146 134 -338 226 -528 250
-27 4 -48 3 -48 -2z"/>
<path d="M3670 5585 c0 -65 -16 -100 -64 -143 -43 -37 -107 -52 -226 -52 -95
0 -132 -9 -167 -42 -30 -28 -29 -42 2 -34 26 7 146 -17 201 -40 18 -7 49 -16
69 -18 20 -3 43 -10 51 -17 23 -19 182 -17 219 3 129 70 156 249 53 345 -27
26 -88 53 -118 53 -18 0 -20 -6 -20 -55z"/>
<path d="M3970 5259 c-13 -22 -36 -47 -49 -56 l-25 -16 64 -18 c36 -10 68 -18
73 -19 15 0 5 67 -16 107 l-22 41 -25 -39z"/>
<path d="M4400 2761 l-25 -7 -3 -213 -2 -213 32 7 c18 4 34 8 35 9 2 2 4 166
4 309 -1 64 -4 117 -8 116 -5 -1 -19 -4 -33 -8z"/>
<path d="M3777 1783 c-4 -3 -7 -53 -7 -110 0 -94 2 -104 18 -101 15 3 17 18
20 111 2 85 0 107 -11 107 -8 0 -17 -3 -20 -7z"/>
</g>
</svg>
